<svg width="72" height="72" viewBox="0 0 72 72" fill="none" xmlns="http://www.w3.org/2000/svg">
<path fill-rule="evenodd" clip-rule="evenodd" d="M39 69.8695C38.0115 69.9559 37.0109 70 36 70C34.9891 70 33.9885 69.9559 33 69.8695V65V64H35V63H37V64H39V65V69.8695ZM41 69.6349C42.0153 69.4853 43.016 69.2908 44 69.0535V65H41V69.6349ZM45 68.7961C51.4719 67.0241 57.1733 63.3876 61.4907 58.5H59.625V57.5H62.3405C63.7178 55.8146 64.9366 53.9945 65.9741 52.0625H63.25V55.0625H62.25H59.25H58.875H58.25V52H55.25V54.0625V55.0625H54.25H51.25V54.4375V54.0625V52.0625H47.25V55.0625H46.25H45V59.9375H45.0002V60.9375H45V68.7961ZM66.4899 51.0625C66.8241 50.3874 67.1365 49.6996 67.4262 49H53V47H68.1812C68.406 46.3422 68.6112 45.6753 68.7961 45H51V51.0625H51.25H52.25V52.0625V54.0625H54.25V52H54.2492V51H59.254V52H59.25V54.0625H62.25V51.0625H62.75H63.25H66.4899ZM69.0535 44C69.2208 43.3061 69.3669 42.604 69.4909 41.8943C69.193 41.7483 68.7499 41.6064 68.1882 41.4883C67.0236 41.2436 65.4522 41.1227 63.8763 41.2255C62.2939 41.3287 60.7582 41.6542 59.6352 42.2645C58.827 42.7037 58.2603 43.2708 58.0135 44H69.0535ZM69.6533 40.8736C69.2949 40.7303 68.865 40.6087 68.3938 40.5097C67.4674 40.315 66.3241 40.1958 65.125 40.1891V37H64.125V40.2099C64.0205 40.2149 63.9158 40.2208 63.8112 40.2276C62.1593 40.3353 60.4606 40.6778 59.1577 41.3859C58.0869 41.9678 57.2506 42.8204 56.9735 44H50V45V51.0625H47.25H46.625H46.25V54.0625H45V48V47V46H43V36V35H41V33V31V25V24H40.2515L37.1443 7.43766C37.8062 7.04595 38.25 6.3248 38.25 5.5C38.25 4.25736 37.2426 3.25 36 3.25C34.7574 3.25 33.75 4.25736 33.75 5.5C33.75 6.30868 34.1766 7.01772 34.8171 7.41432L31.7929 24H31V25V31V33V35H29V36V37V38V46H27V47V47.25V48V54H25V51H24.625H24H20H19V52V54H17V51.9375H17.0008V50.9375H11.996V51.9375H12V54H9V51H8.5H8H5.47922C3.25141 46.4756 2 41.3839 2 36C2 17.2223 17.2223 2 36 2C54.7777 2 70 17.2223 70 36C70 37.6548 69.8818 39.282 69.6533 40.8736ZM5.9924 52C10.3433 60.143 17.9119 66.3078 27 68.7961V65L27 64L27 60.9375H26.9988V59.9375H27V55H25H24V52H20V54V54.375V55H17H16V54V51.9375H13V55H12.375H12H9H8V52H5.9924ZM28 69.0535C28.984 69.2908 29.9847 69.4853 31 69.6349V65H28V69.0535ZM72 36C72 55.8823 55.8823 72 36 72C16.1177 72 0 55.8823 0 36C0 16.1177 16.1177 0 36 0C55.8823 0 72 16.1177 72 36ZM44 55.0625V54.0625V48H42V51H41V48H37V51H35V48H31V51H30V48H28V59.9375H44V55.0625ZM34 63V62H38V63H40V64H44V60.9375H28V64H32V63H34ZM40 25V31H38V25L40 25ZM37 25V31H35V25H37ZM34 25V31H32V25H34ZM32 35V33H40V35H32ZM36 7.75C36.0621 7.75 36.1236 7.74748 36.1844 7.74255L39.2344 24H32.8091L35.7741 7.7388C35.8484 7.74621 35.9238 7.75 36 7.75ZM30 46V38H42V46H30ZM42 37V36H30V37H42ZM38 42C38 43.1046 37.1046 44 36 44C34.8954 44 34 43.1046 34 42C34 40.8954 34.8954 40 36 40C37.1046 40 38 40.8954 38 42ZM39 42C39 43.6569 37.6568 45 36 45C34.3431 45 33 43.6569 33 42C33 40.3431 34.3431 39 36 39C37.6568 39 39 40.3431 39 42ZM33 54V57H32V54H33ZM40 57V54H39V57H40ZM43 54V57H42V54H43ZM30 57V54H29V57H30ZM37 54V57H35V54H37ZM24.75 58.5H21.375V57.5H24.75V58.5ZM15 61H18.375V60H15V61ZM22.375 64H19V63H22.375V64ZM47 61H50.375V60H47V61ZM55.375 63H52V62H55.375V63ZM35.3724 41L35.9596 41.9596L36.8126 41.4377L36.2254 40.4781L35.3724 41ZM35.5872 43.5064L35 42.5468L35.853 42.0249L36.4402 42.9845L35.5872 43.5064Z" fill="#D56316"/>
</svg>
