<svg width="70" height="70" viewBox="0 0 70 70" fill="none" xmlns="http://www.w3.org/2000/svg">
<path d="M65.17 50.6923C67.6168 45.9976 69 40.6604 69 35C69 16.2223 53.7777 1 35 1C16.2223 1 1 16.2223 1 35C1 53.7777 16.2223 69 35 69C38.4097 69 41.7023 68.4981 44.8077 67.5641" stroke="#D56316" stroke-width="2" stroke-linecap="round"/>
<path d="M13.5943 22.4877C13.9062 22.0319 13.7895 21.4096 13.3337 21.0978C12.8779 20.7859 12.2556 20.9026 11.9437 21.3584L13.5943 22.4877ZM10.1536 42.8461L9.20082 43.1497H9.20082L10.1536 42.8461ZM25.4745 60.7746C25.9873 60.9797 26.5693 60.7303 26.7744 60.2175C26.9795 59.7048 26.7301 59.1228 26.2173 58.9177L25.4745 60.7746ZM11.9437 21.3584C7.76567 27.4647 6.91878 35.9866 9.20082 43.1497L11.1065 42.5426C8.98568 35.8857 9.80963 28.0192 13.5943 22.4877L11.9437 21.3584ZM9.20082 43.1497C11.7919 51.2828 18.2512 57.8853 25.4745 60.7746L26.2173 58.9177C19.5372 56.2456 13.5123 50.0945 11.1065 42.5426L9.20082 43.1497Z" fill="#D56316"/>
<path d="M16.6925 16.7241L20.6818 12.8689" stroke="#D56316" stroke-width="2" stroke-linecap="round" stroke-linejoin="round"/>
<path fill-rule="evenodd" clip-rule="evenodd" d="M35.327 13.0566C35.8792 13.0566 36.327 13.5043 36.327 14.0566V19.3281L36.327 19.3298C38.3869 19.5009 40.4207 20.2066 42.0271 21.5155C43.9199 23.0578 45.1539 25.3879 45.1539 28.4614C45.1539 29.0137 44.7062 29.4614 44.1539 29.4614C43.6016 29.4614 43.1539 29.0137 43.1539 28.4614C43.1539 25.9772 42.1811 24.2209 40.7638 23.066C39.32 21.8895 37.3497 21.2884 35.327 21.2884C33.3034 21.2884 31.3199 21.8905 29.8663 23.0032C28.4369 24.0973 27.5 25.6932 27.5 27.8077C27.5 29.8781 28.3953 31.17 29.8276 32.1613C31.3378 33.2066 33.3882 33.8772 35.6372 34.6113L35.6512 34.6158L35.6512 34.6158C37.8173 35.3228 40.1756 36.0925 41.9747 37.3711C43.8541 38.7066 45.1539 40.6172 45.1539 43.4999C45.1539 48.9536 40.7612 51.9728 36.327 52.3922V57.2715C36.327 57.8238 35.8792 58.2715 35.327 58.2715C34.7747 58.2715 34.327 57.8238 34.327 57.2715V52.4063C32.3891 52.2509 30.4786 51.5999 28.9217 50.3933C27.0011 48.9048 25.6817 46.6169 25.5018 43.5587C25.4693 43.0073 25.89 42.5341 26.4413 42.5017C26.9926 42.4692 27.4659 42.8899 27.4983 43.4412C27.6453 45.9407 28.6961 47.6882 30.1469 48.8125C31.6198 49.9541 33.5681 50.499 35.5415 50.4385C39.538 50.3159 43.1539 47.8021 43.1539 43.4999C43.1539 41.3562 42.2469 40.018 40.8162 39.0013C39.3091 37.9304 37.2603 37.2448 35.0167 36.5125L34.8597 36.4613L34.8596 36.4613C32.7385 35.7694 30.4458 35.0215 28.6893 33.8058C26.8114 32.5061 25.5 30.6411 25.5 27.8077C25.5 25.0182 26.7699 22.8546 28.6506 21.415C30.2484 20.1921 32.2708 19.499 34.327 19.3295L34.327 19.3281V14.0566C34.327 13.5043 34.7747 13.0566 35.327 13.0566Z" fill="#D56316"/>
<path d="M56.9229 25.8462C56.9229 25.2939 56.4751 24.8462 55.9229 24.8462C55.3706 24.8462 54.9229 25.2939 54.9229 25.8462H56.9229ZM55.2157 67.0917C55.6063 67.4823 56.2394 67.4823 56.63 67.0917L62.9939 60.7278C63.3844 60.3372 63.3844 59.7041 62.9939 59.3136C62.6034 58.923 61.9702 58.923 61.5797 59.3136L55.9229 64.9704L50.266 59.3136C49.8755 58.923 49.2423 58.923 48.8518 59.3136C48.4613 59.7041 48.4613 60.3372 48.8518 60.7278L55.2157 67.0917ZM54.9229 25.8462V66.3846H56.9229V25.8462H54.9229Z" fill="#D56316"/>
</svg>
