<svg width="163" height="45" viewBox="0 0 163 45" fill="none" xmlns="http://www.w3.org/2000/svg">
<path d="M57.6687 23.4H52.4219V7.40768H57.3189C58.9978 7.40768 60.2571 7.75384 61.0965 8.51538C61.936 9.27692 62.4257 10.3154 62.4257 11.7692C62.4257 12.6 62.2159 13.2923 61.8661 13.8461C61.5163 14.4 61.0266 14.8846 60.397 15.1615C61.0965 15.3692 61.6562 15.7846 62.0759 16.4077C62.4957 17.0308 62.6356 17.7923 62.6356 18.6923C62.6356 20.2154 62.2159 21.3923 61.3764 22.2231C60.5369 23.0538 59.2777 23.4 57.6687 23.4ZM57.8785 16.4769H55.6399V20.7692H57.6687C58.2283 20.7692 58.718 20.5615 58.9978 20.2154C59.2777 19.8692 59.4176 19.3154 59.4176 18.6923C59.4875 17.2385 58.9279 16.4769 57.8785 16.4769ZM55.6399 10.1077V14.1231H57.3189C58.5781 14.1231 59.2077 13.5 59.2077 12.1846C59.2077 11.4923 59.0678 10.9385 58.788 10.5923C58.5081 10.2461 58.0184 10.1077 57.3888 10.1077H55.6399ZM73.1989 13.9154V16.5461H68.1622V20.7692H74.1084V23.4692H65.0141V7.40768H74.1084V10.1077H68.2322V13.9154H73.1989ZM84.9517 7.40768V10.1077H79.2152V13.1538H81.1041C82.7131 13.1538 83.9723 13.6385 84.9517 14.5385C85.9311 15.4385 86.3508 16.6846 86.3508 18.2077C86.3508 19.7308 85.8611 20.9769 84.9517 21.9461C84.0423 22.9154 82.783 23.4 81.244 23.4H75.9272V7.40768H84.9517ZM81.174 15.8538H79.2152V20.7692H81.174C81.8036 20.7692 82.2933 20.5615 82.6431 20.0769C82.9929 19.5923 83.2028 18.9692 83.2028 18.2769C83.2028 17.5846 82.9929 17.0308 82.6431 16.5461C82.2933 16.0615 81.8036 15.8538 81.174 15.8538Z" fill="#101E42"/>
<path d="M53.9608 31.5V37.3846H52.7715V31.5H53.9608ZM60.3968 31.5V32.4692H58.9277V37.3154H57.7384V32.4692H56.3393V31.5H60.3968ZM64.6642 34.4077V35.3769H62.7054V34.4077H64.6642ZM71.1 31.5V32.4692H69.6311V37.3154H68.4419V32.4692H67.0427V31.5H71.1ZM76.4168 33.8538V34.8231H74.5979V36.3462H76.7666V37.3154H73.4086V31.4308H76.7666V32.4H74.5979V33.7846H76.4168V33.8538ZM80.1245 31.5L80.894 33.5077L81.6635 31.5H82.9927L81.5936 34.4077L82.9927 37.3846H81.5936L80.8241 35.3077L80.0545 37.3846H78.6554L80.0545 34.4077L78.6554 31.5H80.1245ZM89.4288 31.5V37.3846H88.2395V34.8923H86.4906V37.3846H85.3013V31.5H86.4906V33.8538H88.2395V31.5H89.4288ZM96.1447 33.9923V34.9615C96.1447 35.7231 95.9348 36.3462 95.585 36.7615C95.2352 37.1769 94.6756 37.3846 94.046 37.3846C93.4163 37.3846 92.8567 37.1769 92.5069 36.7615C92.1571 36.3462 91.9472 35.7231 91.9472 34.9615V33.9923C91.9472 33.1615 92.1571 32.5385 92.5069 32.1231C92.8567 31.6385 93.4163 31.4308 94.046 31.4308C94.6756 31.4308 95.2352 31.6385 95.585 32.1231C95.9348 32.5385 96.1447 33.1615 96.1447 33.9923ZM94.9554 35.0308V33.9923C94.9554 33.4385 94.8854 33.0923 94.7455 32.8154C94.6056 32.5385 94.3957 32.4 94.046 32.4C93.7661 32.4 93.4863 32.5385 93.3464 32.7462C93.2065 33.0231 93.1365 33.3692 93.1365 33.8538V34.8923C93.1365 35.3769 93.2065 35.7923 93.3464 36C93.4863 36.2769 93.7661 36.3462 94.046 36.3462C94.3258 36.3462 94.6056 36.2077 94.7455 36C94.8854 35.8615 94.9554 35.5154 94.9554 35.0308ZM99.3627 31.5H102.791V37.3846H101.601V32.5385H100.552L100.482 34.6154C100.482 35.3077 100.342 35.8615 100.272 36.2769C100.132 36.6923 99.9923 36.9692 99.7125 37.1769C99.5026 37.3846 99.1528 37.4538 98.803 37.4538H98.5232V36.4846H98.6631C98.9429 36.4846 99.0829 36.2769 99.2228 36C99.3627 35.7231 99.4326 35.1692 99.4326 34.4077L99.3627 31.5ZM109.437 33.9923V34.9615C109.437 35.7231 109.227 36.3462 108.877 36.7615C108.527 37.1769 107.967 37.3846 107.338 37.3846C106.708 37.3846 106.149 37.1769 105.799 36.7615C105.449 36.3462 105.239 35.7231 105.239 34.9615V33.9923C105.239 33.1615 105.449 32.5385 105.799 32.1231C106.149 31.6385 106.708 31.4308 107.338 31.4308C107.967 31.4308 108.527 31.6385 108.877 32.1231C109.227 32.5385 109.437 33.1615 109.437 33.9923ZM108.247 35.0308V33.9923C108.247 33.4385 108.177 33.0923 108.037 32.8154C107.897 32.5385 107.688 32.4 107.338 32.4C107.058 32.4 106.778 32.5385 106.638 32.7462C106.498 33.0231 106.428 33.3692 106.428 33.8538V34.8923C106.428 35.3769 106.498 35.7923 106.638 36C106.778 36.2769 107.058 36.3462 107.338 36.3462C107.618 36.3462 107.897 36.2077 108.037 36C108.177 35.8615 108.247 35.5154 108.247 35.0308ZM115.243 31.5V32.4692H113.144V37.3154H111.955V31.4308H115.243V31.5ZM118.741 35.3769L120.49 31.5H121.679V37.3846H120.49V33.5077L118.741 37.3846H117.552V31.5H118.741V35.3769ZM125.317 35.3769L127.066 31.5H128.255V37.3846H127.066V33.5077L125.317 37.3846H124.127V31.5H125.317V35.3769Z" fill="#101E42"/>
<path d="M22.3984 44.5846C33.6913 44.4462 44.7725 34.8923 44.7725 22.2923C44.7725 9.96923 34.7501 0 22.3984 0C8.63515 0 0.51836 12.7385 0.0242947 22.2923C-0.258028 27.6923 2.00056 31.7769 2.63579 32.9538C6.44715 39.6692 14.1405 44.6539 22.3984 44.5846Z" fill="#101E42"/>
<path d="M33.8829 34.2692C33.8129 34.0615 33.603 33.9231 33.3232 33.9231L24.9284 36.1385C24.7185 35.1 23.809 34.2692 22.7597 34.1308L22.5498 27.5538C23.1095 27.1385 23.4593 26.4462 23.4593 25.6846C23.4593 25.4769 23.3893 25.2 23.3893 24.9923L29.6155 22.7769C29.9653 23.2615 30.5249 23.6077 31.1545 23.6077C32.2039 23.6077 33.0434 22.7769 33.0434 21.7385C33.0434 20.7 32.2039 19.8692 31.1545 19.8692C30.1052 19.8692 29.2657 20.7 29.2657 21.7385C29.2657 21.8077 29.2657 21.8769 29.2657 21.8769L22.9696 24.1615C22.5498 23.6077 21.8502 23.2615 21.1507 23.2615C21.0807 23.2615 21.0108 23.2615 20.9408 23.2615L18.982 16.4077C19.6116 16.0615 20.0314 15.4385 20.0314 14.6769C20.0314 13.5692 19.1219 12.6692 18.0026 12.6692C16.8833 12.6692 15.9738 13.5692 15.9738 14.6769C15.9738 15.7846 16.8833 16.6846 18.0026 16.6846C18.0726 16.6846 18.0726 16.6846 18.1425 16.6846L20.1013 23.5385C19.6816 23.7462 19.3318 24.0923 19.052 24.5077L11.4966 22.0846C11.5666 21.8769 11.5666 21.6 11.5666 21.3923C11.5666 19.3154 9.88758 17.6539 7.85883 17.6539C6.66954 17.6539 5.62018 18.2077 4.92061 19.0385C3.8013 17.7923 2.68198 16.4769 1.63263 15.1615C1.56267 15.3 1.49271 15.4385 1.42275 15.5769C1.3528 15.7846 1.28285 15.9923 1.21289 16.2C2.26225 17.4462 3.3116 18.6923 4.36095 19.9385C4.15108 20.4231 4.08112 20.9077 4.08112 21.4615C4.08112 23.1231 5.13049 24.5077 6.59959 24.9923L5.69014 29.5615C5.48027 29.5615 5.27039 29.4923 5.06052 29.4923C5.06052 29.4923 4.57082 29.4923 4.01117 29.5615C2.89185 29.7692 1.63263 30.5308 1.49272 30.6C2.05238 31.8462 2.65794 33.2999 3.84721 34.9615C5.17639 36.7615 6.66954 38.2154 7.78887 39.1846C8.13866 38.9077 9.5378 37.9385 10.0275 36.2769C10.2374 35.5154 10.2374 34.7538 10.2374 34.6846C10.2374 33.9231 10.0275 33.1615 9.74767 32.4692L19.1919 27.0692C19.6116 27.5538 20.2412 27.9 21.0108 27.9C21.2206 27.9 21.3605 27.9 21.5704 27.8308L21.7803 34.0615C20.661 34.3385 19.8215 35.3077 19.8215 36.4846C19.8215 37.8692 20.9408 38.9769 22.3399 38.9769C23.5992 38.9769 24.6485 38.0769 24.8584 36.8308L33.4631 34.5462C33.8129 34.6846 33.9528 34.4769 33.8829 34.2692ZM9.74767 31.6385C9.0481 30.6692 8.0687 29.9077 6.94937 29.5615L7.85883 24.9923C7.92878 24.9923 8.0687 24.9923 8.13866 24.9923C9.60775 24.9923 10.9369 24.0923 11.4966 22.8462L18.982 25.2692C18.982 25.3385 18.982 25.4769 18.982 25.5462C18.982 25.8231 19.052 26.1 19.1219 26.3077L9.74767 31.6385Z" fill="white"/>
<path d="M26.3975 13.0846C26.6774 13.0846 26.9572 12.8769 26.9572 12.5308C26.9572 12.2539 26.7473 11.9769 26.3975 11.9769C26.1177 11.9769 25.8379 12.1846 25.8379 12.5308C25.9078 12.8769 26.1177 13.0846 26.3975 13.0846Z" fill="white"/>
<path d="M16.254 31.9154C16.5338 31.9154 16.8136 31.7077 16.8136 31.3615C16.8136 31.0846 16.6038 30.8077 16.254 30.8077C15.9742 30.8077 15.6943 31.0154 15.6943 31.3615C15.7643 31.6385 15.9742 31.9154 16.254 31.9154Z" fill="white"/>
<path d="M37.171 17.9308C37.4508 17.9308 37.7306 17.7231 37.7306 17.3769C37.7306 17.0308 37.5208 16.8231 37.171 16.8231C36.8912 16.8231 36.6113 17.0308 36.6113 17.3769C36.6113 17.7231 36.8912 17.9308 37.171 17.9308Z" fill="white"/>
<path d="M15.4845 6.43847C15.7643 6.43847 16.0441 6.23078 16.0441 5.88463C16.0441 5.6077 15.8342 5.33078 15.4845 5.33078C15.2046 5.33078 14.9248 5.53847 14.9248 5.88463C14.9248 6.23078 15.1347 6.43847 15.4845 6.43847Z" fill="white"/>
<path d="M29.1267 28.2462C29.4765 28.2462 29.7563 27.9692 29.7563 27.5538C29.7563 27.1385 29.4765 26.8615 29.1267 26.8615C28.7769 26.8615 28.4971 27.1385 28.4971 27.5538C28.4971 27.9692 28.7769 28.2462 29.1267 28.2462Z" fill="white"/>
<path d="M98.4538 18.3461H100.483C100.413 20.0769 99.9229 21.3923 99.0135 22.2923C98.174 23.1923 96.9147 23.6769 95.3057 23.6769C93.6967 23.6769 92.4375 23.0538 91.528 21.8769C90.6186 20.6308 90.1289 18.9692 90.1289 16.8923V13.9846C90.1289 11.9077 90.6186 10.2461 91.598 9.06923C92.5774 7.8923 93.9066 7.26923 95.5856 7.26923C97.1246 7.26923 98.3139 7.75384 99.1534 8.65384C99.9929 9.55384 100.483 10.8692 100.553 12.6H98.5238C98.4538 11.2846 98.174 10.3846 97.6843 9.83076C97.1946 9.27692 96.495 9 95.5856 9C94.4662 9 93.6268 9.41538 93.0671 10.2461C92.5074 11.0769 92.1577 12.3231 92.1577 13.9846V16.8923C92.1577 18.4846 92.4375 19.7308 92.9972 20.6308C93.5568 21.4615 94.3263 21.9461 95.3757 21.9461C96.425 21.9461 97.1946 21.6692 97.6143 21.1846C98.104 20.6308 98.3838 19.6615 98.4538 18.3461ZM110.836 14.3308V16.0615H105.17V21.7385H111.746V23.4692H103.141V7.40769H111.606V9.13846H105.17V14.3308H110.836ZM119.581 17.1692H116.363V23.4H114.334V7.40769H119.441C120.91 7.40769 122.099 7.82307 122.939 8.72307C123.778 9.62307 124.198 10.8 124.198 12.2538C124.198 13.7769 123.778 14.9538 123.009 15.7846C122.169 16.6846 121.05 17.1 119.581 17.1692ZM116.363 9.13846V15.4385H119.441C120.35 15.4385 120.98 15.1615 121.47 14.6077C121.959 14.0538 122.169 13.2923 122.169 12.3231C122.169 11.3538 121.889 10.5923 121.47 10.0385C120.98 9.48461 120.28 9.13846 119.441 9.13846H116.363ZM131.474 23.4H126.786V7.40769H131.334C132.803 7.40769 133.852 7.75384 134.622 8.44615C135.321 9.13846 135.741 10.2461 135.741 11.6308C135.741 12.3923 135.531 13.0154 135.181 13.6385C134.831 14.2615 134.272 14.6769 133.642 14.9538C134.342 15.1615 134.971 15.6461 135.391 16.3385C135.811 17.0308 136.021 17.8615 136.021 18.8308C136.021 20.2846 135.601 21.3923 134.831 22.2231C134.062 22.9846 132.943 23.4 131.474 23.4ZM131.543 15.9231H128.745V21.6692H131.474C132.243 21.6692 132.803 21.3923 133.292 20.9077C133.712 20.4231 133.992 19.7308 133.992 18.7615C133.992 16.8923 133.153 15.9231 131.543 15.9231ZM128.815 9.13846V14.1923H131.404C132.103 14.1923 132.663 13.9846 133.083 13.5C133.502 13.0154 133.712 12.3923 133.712 11.6308C133.712 10.7308 133.502 10.1077 133.153 9.6923C132.733 9.27692 132.173 9.06923 131.404 9.06923H128.815V9.13846ZM141.128 19.7308L147.354 7.40769H149.383V23.4H147.354V11.0769L141.128 23.4H139.099V7.40769H141.128V19.7308ZM160.856 18.3461H162.884C162.814 20.0769 162.325 21.3923 161.415 22.2923C160.576 23.1923 159.316 23.6769 157.707 23.6769C156.098 23.6769 154.839 23.0538 153.93 21.8769C153.02 20.6308 152.531 18.9692 152.531 16.8923V13.9846C152.531 11.9077 153.02 10.2461 154 9.06923C154.979 7.8923 156.308 7.26923 157.987 7.26923C159.526 7.26923 160.716 7.75384 161.555 8.65384C162.395 9.55384 162.884 10.8692 162.954 12.6H160.925C160.856 11.2846 160.576 10.3846 160.086 9.83076C159.596 9.27692 158.897 9 157.987 9C156.868 9 156.098 9.41538 155.469 10.2461C154.909 11.0769 154.559 12.3231 154.559 13.9846V16.8923C154.559 18.4846 154.839 19.7308 155.399 20.6308C155.959 21.5308 156.728 21.9461 157.777 21.9461C158.827 21.9461 159.596 21.6692 160.016 21.1846C160.436 20.6308 160.716 19.6615 160.856 18.3461Z" fill="#D86411"/>
</svg>
