<svg display="none" xmlns="http://www.w3.org/2000/svg">

    
    <symbol id="location" width="19" height="24" viewBox="0 0 19 24" fill="none">
        <path d="M9.49998 24C7.78583 22.5638 6.19696 20.9893 4.74999 19.2929C2.57857 16.7454 1.19278e-06 12.9515 1.19278e-06 9.33619C-0.000940524 7.48983 0.555761 5.6847 1.59965 4.14924C2.64354 2.61378 4.1277 1.41701 5.86429 0.710405C7.60088 0.00379488 9.51185 -0.180898 11.3553 0.179701C13.1988 0.540299 14.892 1.42998 16.2205 2.73615C17.1051 3.60112 17.8061 4.62983 18.2832 5.76272C18.7603 6.89562 19.0039 8.1102 19 9.33619C19 12.9515 16.4214 16.7454 14.25 19.2929C12.803 20.9893 11.2141 22.5638 9.49998 24ZM9.49998 5.33697C8.42017 5.33697 7.38459 5.75832 6.62105 6.50832C5.85751 7.25832 5.42856 8.27553 5.42856 9.33619C5.42856 10.3969 5.85751 11.4141 6.62105 12.1641C7.38459 12.9141 8.42017 13.3354 9.49998 13.3354C10.5798 13.3354 11.6154 12.9141 12.3789 12.1641C13.1424 11.4141 13.5714 10.3969 13.5714 9.33619C13.5714 8.27553 13.1424 7.25832 12.3789 6.50832C11.6154 5.75832 10.5798 5.33697 9.49998 5.33697Z" fill="#101F42"/>
    </symbol>

    <symbol id="nav-phone" width="16" height="16" viewBox="0 0 16 16" fill="none" >
        <path d="M15.9909 12.6234C15.9528 12.3875 15.8049 12.1859 15.5834 12.0661L12.3068 10.1356L12.2798 10.1205C12.1425 10.0517 11.9907 10.0165 11.8371 10.0176C11.5626 10.0176 11.3004 10.1216 11.1185 10.304L10.1514 11.2716C10.11 11.3109 9.97515 11.3678 9.93424 11.3699C9.92304 11.3689 8.80898 11.2887 6.758 9.23751C4.71068 7.19065 4.62382 6.07316 4.62314 6.07316C4.62428 6.01602 4.68051 5.88162 4.72051 5.84002L5.5452 5.01556C5.83571 4.72436 5.9228 4.24161 5.75045 3.86767L3.92919 0.440687C3.79685 0.168229 3.53971 0 3.25445 0C3.05262 0 2.85788 0.0836574 2.70565 0.235658L0.45764 2.47864C0.242096 2.69304 0.0564953 3.06789 0.0160381 3.36961C-0.00361912 3.51384 -0.402477 6.95659 4.31754 11.6773C8.32463 15.6839 11.4492 15.9952 12.3121 15.9952C12.4172 15.9966 12.5222 15.9912 12.6266 15.979C12.9274 15.9388 13.3018 15.7536 13.516 15.539L15.7621 13.2931C15.9455 13.1088 16.0291 12.8654 15.9909 12.6234Z" fill="#101F42"/>
    </symbol>

    <symbol id="bars" width="28" height="12" viewBox="0 0 28 12" fill="none">
        <rect width="28" height="4" rx="2" fill="#101E42"/>
        <rect y="8" width="28" height="4" rx="2" fill="#D56316"/>
    </symbol>

    <symbol id="close" width="23" height="24" viewBox="0 0 23 24" fill="none">
        <rect x="3" width="28" height="4" rx="2" transform="rotate(45 3 0)" fill="#101E42"/>
        <rect y="20.2678" width="28" height="4" rx="2" transform="rotate(-45 0 20.2678)" fill="#D56316"/>
    </symbol>

    <symbol id="global" width="16" height="16" viewBox="0 0 16 16" fill="none">
        <path d="M8 0C5.87827 0 3.84344 0.842855 2.34315 2.34315C0.842855 3.84344 0 5.87827 0 8C0 10.1217 0.842855 12.1566 2.34315 13.6569C3.84344 15.1571 5.87827 16 8 16C10.1217 16 12.1566 15.1571 13.6569 13.6569C15.1571 12.1566 16 10.1217 16 8C16 5.87827 15.1571 3.84344 13.6569 2.34315C12.1566 0.842855 10.1217 0 8 0V0ZM0.986667 8.60444H3.21778C3.25333 9.41333 3.36622 10.2169 3.55556 11.0044H1.63556C1.27752 10.2497 1.05774 9.4368 0.986667 8.60444ZM8.60444 3.80444V1.05778C9.46105 1.38331 10.1649 2.01744 10.5778 2.83556C10.76 3.144 10.9209 3.46489 11.0578 3.79556L8.60444 3.80444ZM11.4667 5.00444C11.6729 5.78933 11.7956 6.59378 11.8311 7.40444H8.60444V5.00444H11.4667ZM7.39556 1.05778V3.80444H4.94222C5.07934 3.47351 5.23975 3.1527 5.42222 2.84444C5.83331 2.02298 6.53741 1.38548 7.39556 1.05778ZM7.39556 5.00444V7.40444H4.17778C4.21333 6.59378 4.336 5.78933 4.54222 5.00444H7.39556ZM3.21778 7.39556H0.986667C1.05774 6.5632 1.27752 5.75033 1.63556 4.99556H3.55556C3.36586 5.7828 3.25274 6.58654 3.21778 7.39556ZM4.17778 8.60444H7.39556V11.0044H4.54222C4.33603 10.2196 4.21386 9.4151 4.17778 8.60444ZM7.40444 12.16V14.9067C6.54784 14.5811 5.84395 13.947 5.43111 13.1289C5.24863 12.8206 5.08823 12.4998 4.95111 12.1689L7.40444 12.16ZM8.60444 14.9067V12.2044H11.0578C10.9207 12.5354 10.7603 12.8562 10.5778 13.1644C10.1649 13.9826 9.46105 14.6167 8.60444 14.9422V14.9067ZM8.60444 10.96V8.56H11.8222C11.7861 9.37066 11.664 10.1752 11.4578 10.96H8.60444ZM12.7911 8.56H15.0222C14.9511 9.39236 14.7314 10.2052 14.3733 10.96H12.4444C12.6311 10.1867 12.744 9.39822 12.7822 8.60444L12.7911 8.56ZM12.7911 7.36C12.7504 6.56561 12.6343 5.77688 12.4444 5.00444H14.3644C14.7227 5.76 14.9422 6.57244 15.0133 7.40444L12.7911 7.36ZM13.68 3.80444H12.0889C11.801 2.99582 11.3837 2.23931 10.8533 1.56444C11.9595 2.06096 12.9202 2.83205 13.6444 3.80444H13.68ZM5.14667 1.56444C4.61628 2.23931 4.199 2.99582 3.91111 3.80444H2.35556C3.07975 2.83205 4.04055 2.06096 5.14667 1.56444ZM2.34667 12.2311H3.91111C4.199 13.0397 4.61628 13.7962 5.14667 14.4711C4.03749 13.9671 3.0764 13.1866 2.35556 12.2044L2.34667 12.2311ZM10.8444 14.4711C11.3748 13.7962 11.7921 13.0397 12.08 12.2311H13.6444C12.9158 13.1905 11.9554 13.949 10.8533 14.4356L10.8444 14.4711Z" fill="#101E42"/>
    </symbol>

    <symbol id="instagram" width="24" height="25" viewBox="0 0 24 25" fill="none" >
        <path d="M23.9227 7.09551C23.9093 6.08613 23.7203 5.08677 23.3643 4.14216C23.0556 3.34538 22.584 2.62177 21.9798 2.01754C21.3756 1.41332 20.652 0.941782 19.8552 0.633052C18.9227 0.283017 17.9376 0.0937467 16.9418 0.0733008C15.6597 0.015993 15.2532 0 11.9987 0C8.74411 0 8.32697 8.93672e-08 7.0542 0.0733008C6.05885 0.093897 5.07421 0.283165 4.14216 0.633052C3.34526 0.941567 2.62153 1.41303 2.01728 2.01728C1.41303 2.62153 0.941567 3.34526 0.633052 4.14216C0.282316 5.07392 0.093456 6.05879 0.0746335 7.0542C0.0173256 8.33763 0 8.74411 0 11.9987C0 15.2532 -9.92969e-09 15.669 0.0746335 16.9431C0.0946246 17.94 0.282541 18.9236 0.633052 19.8578C0.942085 20.6545 1.4139 21.3779 2.01835 21.9819C2.6228 22.5859 3.3466 23.0572 4.14349 23.3656C5.07299 23.7297 6.0578 23.9325 7.05553 23.9653C8.33896 24.0227 8.74545 24.04 12 24.04C15.2546 24.04 15.6717 24.04 16.9445 23.9653C17.9402 23.9457 18.9254 23.7569 19.8578 23.4069C20.6544 23.0978 21.3778 22.6262 21.982 22.022C22.5862 21.4178 23.0579 20.6944 23.3669 19.8978C23.7175 18.9649 23.9054 17.9813 23.9254 16.9831C23.9827 15.701 24 15.2945 24 12.0386C23.9973 8.7841 23.9973 8.37095 23.9227 7.09551ZM11.9907 18.1533C8.58685 18.1533 5.82941 15.3958 5.82941 11.992C5.82941 8.58818 8.58685 5.83074 11.9907 5.83074C13.6247 5.83074 15.1919 6.47987 16.3473 7.63533C17.5028 8.7908 18.1519 10.3579 18.1519 11.992C18.1519 13.6261 17.5028 15.1932 16.3473 16.3487C15.1919 17.5041 13.6247 18.1533 11.9907 18.1533ZM18.3972 7.03954C18.2084 7.03971 18.0215 7.00267 17.8472 6.93053C17.6728 6.8584 17.5143 6.75258 17.3809 6.61913C17.2474 6.48569 17.1416 6.32724 17.0695 6.15285C16.9973 5.97846 16.9603 5.79156 16.9605 5.60284C16.9605 5.41426 16.9976 5.22753 17.0698 5.0533C17.1419 4.87907 17.2477 4.72077 17.3811 4.58742C17.5144 4.45407 17.6727 4.34829 17.8469 4.27613C18.0212 4.20396 18.2079 4.16681 18.3965 4.16681C18.5851 4.16681 18.7718 4.20396 18.946 4.27613C19.1203 4.34829 19.2786 4.45407 19.4119 4.58742C19.5453 4.72077 19.651 4.87907 19.7232 5.0533C19.7954 5.22753 19.8325 5.41426 19.8325 5.60284C19.8325 6.39716 19.1901 7.03954 18.3972 7.03954Z" fill="#101E42"/>
        <path d="M11.9905 15.9947C14.2009 15.9947 15.9927 14.2028 15.9927 11.9925C15.9927 9.78209 14.2009 7.99023 11.9905 7.99023C9.78014 7.99023 7.98828 9.78209 7.98828 11.9925C7.98828 14.2028 9.78014 15.9947 11.9905 15.9947Z" fill="#101E42"/>
    </symbol>

    <symbol id="vk" width="24" height="24" viewBox="0 0 24 24" fill="none">
        <path d="M9.489 0.003L10.218 0H13.782L14.512 0.003L15.426 0.013L15.859 0.02L16.277 0.031L16.68 0.045L17.068 0.061L17.442 0.082L17.802 0.107L18.147 0.137L18.48 0.17C20.22 0.366 21.413 0.786 22.313 1.686C23.213 2.586 23.633 3.778 23.829 5.519L23.863 5.852L23.892 6.198L23.917 6.558L23.937 6.931L23.962 7.519L23.974 7.929L23.987 8.573L23.996 9.488L24 10.468L23.999 13.781L23.996 14.511L23.986 15.425L23.979 15.858L23.968 16.276L23.954 16.679L23.938 17.067L23.917 17.441L23.892 17.801L23.862 18.146L23.829 18.479C23.633 20.219 23.213 21.412 22.313 22.312C21.413 23.212 20.221 23.632 18.48 23.828L18.147 23.862L17.801 23.891L17.441 23.916L17.068 23.936L16.48 23.961L16.07 23.973L15.426 23.986L14.511 23.995L13.531 23.999L10.218 23.998L9.488 23.995L8.574 23.985L8.141 23.978L7.723 23.967L7.32 23.953L6.932 23.937L6.558 23.916L6.198 23.891L5.853 23.861L5.52 23.828C3.78 23.632 2.587 23.212 1.687 22.312C0.787 21.412 0.367 20.22 0.171 18.479L0.137 18.146L0.108 17.8L0.083 17.44L0.063 17.067L0.038 16.479L0.026 16.069L0.013 15.425L0.004 14.51L0 13.53L0.001 10.217L0.004 9.487L0.014 8.573L0.021 8.14L0.032 7.722L0.046 7.319L0.062 6.931L0.083 6.557L0.108 6.197L0.138 5.852L0.171 5.519C0.367 3.779 0.787 2.586 1.687 1.686C2.587 0.786 3.779 0.366 5.52 0.17L5.853 0.136L6.199 0.107L6.559 0.082L6.932 0.062L7.52 0.037L7.93 0.025L8.574 0.012L9.489 0.003ZM6.79 7.299H4.05C4.18 13.539 7.3 17.289 12.77 17.289H13.08V13.719C15.09 13.919 16.61 15.389 17.22 17.289H20.06C19.28 14.449 17.23 12.879 15.95 12.279C17.23 11.539 19.03 9.739 19.46 7.299H16.88C16.32 9.279 14.66 11.079 13.08 11.249V7.299H10.5V14.219C8.9 13.819 6.88 11.879 6.79 7.299Z" fill="#101E42"/>
    </symbol>

    <symbol id="go-next" width="22" height="22" viewBox="0 0 22 22" >
        <path fill-rule="evenodd" clip-rule="evenodd" d="M10.9552 22C17.0303 22 21.9552 17.0751 21.9552 11C21.9552 4.92487 17.0303 0 10.9552 0C5.21711 0 0.505229 4.3935 0 10H11.5409L6.88409 5.34315C6.49356 4.95262 6.49356 4.31946 6.88409 3.92893C7.27461 3.53841 7.90778 3.53841 8.2983 3.92893L14.6623 10.2929C15.0528 10.6834 15.0528 11.3166 14.6623 11.7071L8.2983 18.0711C7.90778 18.4616 7.27461 18.4616 6.88409 18.0711C6.49356 17.6805 6.49356 17.0474 6.88409 16.6569L11.5409 12H0C0.505229 17.6065 5.21711 22 10.9552 22Z" />
    </symbol>

    <symbol id="icon-down" width="18" height="10" viewBox="0 0 18 10" fill="none" >
        <path d="M1 1L9 9L17 1" stroke="#D86411" stroke-width="2" stroke-linecap="round" stroke-linejoin="round"/>
    </symbol>

    <symbol id="cart-price" width="40" height="35" viewBox="0 0 40 35" fill="none">
        <path d="M15 11.25C15 12.2446 14.6049 13.1984 13.9017 13.9017C13.1984 14.6049 12.2446 15 11.25 15C10.2554 15 9.30161 14.6049 8.59835 13.9017C7.89509 13.1984 7.5 12.2446 7.5 11.25C7.5 10.2554 7.89509 9.30161 8.59835 8.59835C9.30161 7.89509 10.2554 7.5 11.25 7.5C12.2446 7.5 13.1984 7.89509 13.9017 8.59835C14.6049 9.30161 15 10.2554 15 11.25Z" fill="#D86411"/>
        <path d="M5 0C3.67392 0 2.40215 0.526784 1.46447 1.46447C0.526784 2.40215 0 3.67392 0 5V30C0 31.3261 0.526784 32.5979 1.46447 33.5355C2.40215 34.4732 3.67392 35 5 35H35C36.3261 35 37.5979 34.4732 38.5355 33.5355C39.4732 32.5979 40 31.3261 40 30V5C40 3.67392 39.4732 2.40215 38.5355 1.46447C37.5979 0.526784 36.3261 0 35 0H5ZM35 2.5C35.663 2.5 36.2989 2.76339 36.7678 3.23223C37.2366 3.70107 37.5 4.33696 37.5 5V21.25L28.0575 16.3825C27.8231 16.2651 27.5576 16.2243 27.2987 16.266C27.0399 16.3078 26.8007 16.4298 26.615 16.615L17.34 25.89L10.69 21.46C10.4499 21.3001 10.1619 21.2283 9.87485 21.2565C9.58779 21.2848 9.31933 21.4114 9.115 21.615L2.5 27.5V5C2.5 4.33696 2.76339 3.70107 3.23223 3.23223C3.70107 2.76339 4.33696 2.5 5 2.5H35Z" fill="#D86411"/>
    </symbol>

    <symbol id="check" width="14" height="12" viewBox="0 0 14 12" >
        <path fill-rule="evenodd" clip-rule="evenodd" d="M13.6947 0.351352C13.8822 0.57639 13.9875 0.881566 13.9875 1.19977C13.9875 1.51797 13.8822 1.82315 13.6947 2.04819L5.69471 11.6484C5.50718 11.8734 5.25288 11.9998 4.98771 11.9998C4.72255 11.9998 4.46824 11.8734 4.28071 11.6484L0.280712 6.8483C0.0985537 6.62197 -0.00224062 6.31884 3.78026e-05 6.0042C0.00231622 5.68955 0.107485 5.38857 0.292893 5.16608C0.478301 4.94358 0.729114 4.81738 0.99131 4.81464C1.25351 4.81191 1.50611 4.93286 1.69471 5.15146L4.98771 9.10315L12.2807 0.351352C12.4682 0.126381 12.7225 0 12.9877 0C13.2529 0 13.5072 0.126381 13.6947 0.351352Z"/>
    </symbol>

    <symbol id="del" width="12" height="12" viewBox="0 0 12 12"  >
        <path d="M1 1L11 11M11 1L1 11L11 1Z" stroke="black"  stroke-width="2" stroke-linecap="round" stroke-linejoin="round"/>
    </symbol>


</svg>
